<svg width="16" height="16" viewBox="0 0 16 16" fill="none" xmlns="http://www.w3.org/2000/svg">
<g clip-path="url(#clip0_346_13281)">
<path d="M7.99978 0.888916C4.07889 0.888916 0.888672 4.07914 0.888672 8.00003C0.888672 11.9209 4.07889 15.1111 7.99978 15.1111C11.9207 15.1111 15.1109 11.9209 15.1109 8.00003C15.1109 4.07914 11.9207 0.888916 7.99978 0.888916ZM13.5198 9.7058C12.9482 9.88892 12.3651 10 11.7776 10C10.5091 10 9.33934 9.58403 8.38467 8.88892H13.7011C13.6576 9.16714 13.6007 9.4418 13.5189 9.7058H13.5198ZM7.06645 7.55558C6.86823 7.27647 6.69667 6.97958 6.55001 6.66669H13.6158C13.6842 6.95558 13.7313 7.25158 13.7544 7.55558H7.06645ZM13.1198 5.33336H6.10912C6.05223 5.04447 6.02201 4.74669 6.01045 4.44447H12.5438C12.7616 4.7218 12.9553 5.01869 13.1198 5.33336ZM11.0647 3.11114H6.11801C6.16067 2.89869 6.22645 2.68892 6.29312 2.48003C6.83267 2.31292 7.40601 2.22225 7.99978 2.22225C9.12601 2.22225 10.1749 2.55114 11.0647 3.11114Z" fill="#161618"/>
</g>
<defs>
<clipPath id="clip0_346_13281">
<rect width="16" height="16" fill="white"/>
</clipPath>
</defs>
</svg>
