<svg width="16" height="16" viewBox="0 0 16 16" fill="none" xmlns="http://www.w3.org/2000/svg">
<path d="M1.33292 9.30929C1.26004 9.30929 1.18626 9.29774 1.11426 9.27196C0.765813 9.15107 0.581813 8.77152 0.703591 8.42307L2.13826 4.29241C2.39959 3.56174 2.96937 3.01329 3.7027 2.78129C4.43515 2.54929 5.21826 2.67018 5.84759 3.11285C6.14892 3.32441 6.22092 3.74041 6.00937 4.04174C5.79692 4.34129 5.38181 4.41507 5.08048 4.20352C4.79515 4.00174 4.4387 3.94752 4.10537 4.05329C3.77203 4.15907 3.51337 4.40796 3.39515 4.73774L1.96226 8.86218C1.86715 9.13774 1.60937 9.31018 1.33292 9.31018V9.30929Z" fill="#161618"/>
<path d="M14.6669 9.3093C14.3905 9.3093 14.1327 9.13686 14.0376 8.8613L12.6029 4.73063C12.4865 4.40797 12.2278 4.15819 11.8945 4.05241C11.5603 3.94663 11.2047 4.00174 10.9194 4.20263C10.6181 4.41597 10.2021 4.34219 9.9905 4.04086C9.77894 3.73952 9.85094 3.32352 10.1523 3.11197C10.7825 2.6693 11.5621 2.5493 12.2972 2.78041C13.0305 3.01241 13.6003 3.56086 13.8598 4.2853L15.2963 8.42219C15.4181 8.76974 15.2341 9.15019 14.8856 9.27108C14.8136 9.29597 14.7398 9.3093 14.6669 9.3093Z" fill="#161618"/>
<path d="M14.8355 7.99735C13.9822 7.77424 13.1075 7.63379 12.2346 7.58046C10.8044 7.49246 9.80794 7.65157 9.02394 7.8169C8.80349 7.86402 8.59105 7.88713 8.39105 7.88713H7.60794C7.40794 7.88713 7.19549 7.86402 6.97505 7.8169C6.19105 7.65068 5.20083 7.49246 3.76438 7.58046C2.89238 7.63379 2.01683 7.77335 1.16349 7.99735C0.807938 8.09068 0.594605 8.45513 0.687938 8.81157C0.724383 8.94935 0.807938 9.05602 0.909271 9.14135L0.977716 10.7698C1.06127 12.3511 2.08172 13.3342 3.6426 13.3342H4.50127C6.48261 13.3342 7.59638 12.336 7.81416 10.3671L7.94038 9.22224H8.06038L8.1866 10.3671C8.40349 12.336 9.51816 13.3342 11.4995 13.3342H12.3582C13.919 13.3342 14.9395 12.352 15.023 10.7627L15.0906 9.1529C15.1937 9.06668 15.2755 8.95202 15.3119 8.81246C15.4044 8.4569 15.1919 8.09157 14.8364 7.99824L14.8355 7.99735Z" fill="#161618"/>
</svg>
